<svg xmlns="http://www.w3.org/2000/svg" width="84" height="84" viewBox="0 0 84 84">
    <defs>
        <linearGradient id="linear-gradient" x1="-.051" x2="1.3" y1="1.156" y2="-.29" gradientUnits="objectBoundingBox">
            <stop offset="0" stop-color="#3253fb"/>
            <stop offset="1" stop-color="#56ff6d" stop-opacity=".502"/>
        </linearGradient>
        <style>
            .cls-3{fill:none;stroke:#000;stroke-linecap:round;opacity:.5}
        </style>
    </defs>
    <g id="Group_20" transform="translate(-84 -20)">
        <circle id="Ellipse_4" cx="42" cy="42" r="42" fill="url(#linear-gradient)" transform="translate(84 20)"/>
        <g id="Group_5" transform="translate(-1)">
            <rect id="Rectangle_2" width="38" height="45" fill="#e6e6e6" rx="4" transform="translate(107 40)"/>
            <g id="Group_1" transform="translate(112 48)">
                <path id="Path_3" d="M739.555 1055.945h27.335" class="cls-3" transform="translate(-739.555 -1055.945)"/>
                <path id="Path_4" d="M739.555 1055.945h16.632" class="cls-3" transform="translate(-739.555 -1050.945)"/>
                <path id="Path_7" d="M739.555 1055.945h16.632" class="cls-3" transform="translate(-739.555 -1045.945)"/>
                <path id="Path_9" d="M739.555 1055.945h16.632" class="cls-3" transform="translate(-739.555 -1035.945)"/>
                <path id="Path_10" d="M739.555 1055.945h16.632" class="cls-3" transform="translate(-739.555 -1030.945)"/>
                <path id="Path_11" d="M739.555 1055.945h16.632" class="cls-3" transform="translate(-739.555 -1025.945)"/>
                <path id="Path_8" d="M739.555 1055.945h6.224" class="cls-3" transform="translate(-739.555 -1040.945)"/>
                <path id="Path_5" d="M739.555 1055.945h8.335" class="cls-3" transform="translate(-720.555 -1050.945)"/>
            </g>
            <rect id="Rectangle_3" width="28" height="30" fill="#fff" rx="4" transform="translate(120 55)"/>
            <g id="Group_2" transform="translate(125 60)">
                <path id="Path_3-2" d="M739.555 1055.945h18.754" class="cls-3" transform="translate(-739.555 -1055.945)"/>
                <path id="Path_4-2" d="M739.555 1055.945H750.1" class="cls-3" transform="translate(-739.555 -1052.774)"/>
                <path id="Path_7-2" d="M739.555 1055.945H750.1" class="cls-3" transform="translate(-739.555 -1049.144)"/>
                <path id="Path_9-2" d="M739.555 1055.945H750.1" class="cls-3" transform="translate(-739.555 -1042.344)"/>
                <path id="Path_10-2" d="M739.555 1055.945H750.1" class="cls-3" transform="translate(-739.555 -1038.714)"/>
                <path id="Path_11-2" d="M739.555 1055.945H750.1" class="cls-3" transform="translate(-739.555 -1035.543)"/>
                <path id="Path_8-2" d="M739.555 1055.945h3.945" class="cls-3" transform="translate(-739.555 -1045.744)"/>
                <path id="Path_5-2" d="M739.555 1055.945h5.286" class="cls-3" transform="translate(-726.087 -1052.774)"/>
            </g>
        </g>
    </g>
</svg>
