<svg xmlns="http://www.w3.org/2000/svg" width="1150.701" height="502.918" viewBox="0 0 1150.701 502.918">
    <defs>
        <style>
            .cls-1{fill:#ff7272}.cls-2,.cls-3{fill:none;stroke-linecap:round}.cls-2{stroke:#6d7bff}.cls-3{stroke:#000}
        </style>
    </defs>
    <g id="Confetti" transform="translate(-404.908 -4052.535)">
        <circle id="Ellipse_65" cx="3" cy="3" r="3" class="cls-1" transform="translate(569 4185)"/>
        <circle id="Ellipse_66" cx="3" cy="3" r="3" class="cls-1" transform="translate(418 4236)"/>
        <circle id="Ellipse_71" cx="3" cy="3" r="3" class="cls-1" transform="rotate(-45.97 5428.413 1620.367)"/>
        <circle id="Ellipse_67" cx="3" cy="3" r="3" class="cls-1" transform="translate(608 4316)"/>
        <circle id="Ellipse_68" cx="3" cy="3" r="3" class="cls-1" transform="translate(1295 4094)"/>
        <circle id="Ellipse_70" cx="3" cy="3" r="3" class="cls-1" transform="translate(1348 4166)"/>
        <circle id="Ellipse_72" cx="3" cy="3" r="3" class="cls-1" transform="translate(1474 4414)"/>
        <circle id="Ellipse_76" cx="3" cy="3" r="3" class="cls-1" transform="translate(1308 4391)"/>
        <circle id="Ellipse_75" cx="3" cy="3" r="3" class="cls-1" transform="translate(433 4531)"/>
        <circle id="Ellipse_74" cx="3" cy="3" r="3" class="cls-1" transform="translate(1468 4210)"/>
        <circle id="Ellipse_73" cx="3" cy="3" r="3" class="cls-1" transform="translate(1415 4510)"/>
        <circle id="Ellipse_69" cx="3" cy="3" r="3" class="cls-1" transform="translate(459 4329)"/>
        <g id="Group_5" transform="translate(457.642 4062.349)">
            <path id="Path_47" d="M1338.613 285h2.93" class="cls-2" transform="translate(-1338.613 -280.349)"/>
            <path id="Path_48" d="M1338.613 285h2.93" class="cls-2" transform="translate(-1332.241 -280.349)"/>
            <path id="Path_49" d="M0 0h2.93" class="cls-2" transform="rotate(90 2.325 2.326)"/>
            <path id="Path_50" d="M0 0h2.93" class="cls-2" transform="rotate(90 -.86 5.512)"/>
        </g>
        <g id="Group_16" transform="rotate(45 -4665.159 2764.344)">
            <path id="Path_47-2" d="M1338.613 285h2.93" class="cls-2" transform="translate(-1338.613 -280.349)"/>
            <path id="Path_48-2" d="M1338.613 285h2.93" class="cls-2" transform="translate(-1332.241 -280.349)"/>
            <path id="Path_49-2" d="M0 0h2.93" class="cls-2" transform="rotate(90 2.325 2.326)"/>
            <path id="Path_50-2" d="M0 0h2.93" class="cls-2" transform="rotate(90 -.86 5.512)"/>
        </g>
        <g id="Group_6" transform="translate(500.642 4206.787)">
            <path id="Path_54" d="M1338.613 285h2.93" class="cls-2" transform="translate(-1338.613 -280.349)"/>
            <path id="Path_55" d="M1338.613 285h2.93" class="cls-2" transform="translate(-1332.241 -280.349)"/>
            <path id="Path_53" d="M0 0h2.93" class="cls-2" transform="rotate(90 2.325 2.326)"/>
            <path id="Path_56" d="M0 0h2.93" class="cls-2" transform="rotate(90 -.86 5.512)"/>
        </g>
        <g id="Group_8" transform="translate(1455.642 4076.651)">
            <path id="Path_64" d="M1338.613 285h2.93" class="cls-2" transform="translate(-1338.613 -280.349)"/>
            <path id="Path_65" d="M1338.613 285h2.93" class="cls-2" transform="translate(-1332.241 -280.349)"/>
            <path id="Path_63" d="M2.93 0H0" class="cls-2" transform="rotate(-90 6.977 2.325)"/>
            <path id="Path_66" d="M2.93 0H0" class="cls-2" transform="rotate(-90 3.79 -.86)"/>
        </g>
        <g id="Group_9" transform="translate(1428.698 4174.598)">
            <path id="Path_64-2" d="M1338.613 285h2.93" class="cls-2" transform="translate(-1338.613 -280.349)"/>
            <path id="Path_65-2" d="M1338.613 285h2.93" class="cls-2" transform="translate(-1332.241 -280.349)"/>
            <path id="Path_63-2" d="M2.93 0H0" class="cls-2" transform="rotate(-90 6.977 2.325)"/>
            <path id="Path_66-2" d="M2.93 0H0" class="cls-2" transform="rotate(-90 3.79 -.86)"/>
        </g>
        <g id="Group_10" transform="translate(1452.642 4279.582)">
            <path id="Path_64-3" d="M1338.613 285h2.93" class="cls-2" transform="translate(-1338.613 -280.349)"/>
            <path id="Path_65-3" d="M1338.613 285h2.93" class="cls-2" transform="translate(-1332.241 -280.349)"/>
            <path id="Path_63-3" d="M2.93 0H0" class="cls-2" transform="rotate(-90 6.977 2.325)"/>
            <path id="Path_66-3" d="M2.93 0H0" class="cls-2" transform="rotate(-90 3.79 -.86)"/>
        </g>
        <g id="Group_12" transform="translate(1413.642 4435.837)">
            <path id="Path_64-4" d="M1338.613 285h2.93" class="cls-2" transform="translate(-1338.613 -280.349)"/>
            <path id="Path_65-4" d="M1338.613 285h2.93" class="cls-2" transform="translate(-1332.241 -280.349)"/>
            <path id="Path_63-4" d="M2.93 0H0" class="cls-2" transform="rotate(-90 6.977 2.325)"/>
            <path id="Path_66-4" d="M2.93 0H0" class="cls-2" transform="rotate(-90 3.79 -.86)"/>
        </g>
        <g id="Group_13" transform="translate(1428.698 4545.651)">
            <path id="Path_64-5" d="M1338.613 285h2.93" class="cls-2" transform="translate(-1338.613 -280.349)"/>
            <path id="Path_65-5" d="M1338.613 285h2.93" class="cls-2" transform="translate(-1332.241 -280.349)"/>
            <path id="Path_63-5" d="M2.93 0H0" class="cls-2" transform="rotate(-90 6.977 2.325)"/>
            <path id="Path_66-5" d="M2.93 0H0" class="cls-2" transform="rotate(-90 3.79 -.86)"/>
        </g>
        <g id="Group_7" transform="translate(505.642 4291.427)">
            <path id="Path_69" d="M1338.613 285h2.93" class="cls-2" transform="translate(-1338.613 -280.349)"/>
            <path id="Path_70" d="M1338.613 285h2.93" class="cls-2" transform="translate(-1332.241 -280.349)"/>
            <path id="Path_68" d="M2.93 0H0" class="cls-2" transform="rotate(-90 6.977 2.325)"/>
            <path id="Path_71" d="M2.93 0H0" class="cls-2" transform="rotate(-90 3.79 -.86)"/>
        </g>
        <g id="Group_11" transform="rotate(-45.97 5434.162 1732.642)">
            <path id="Path_69-2" d="M0 0h2.93" class="cls-2" transform="translate(0 4.651)"/>
            <path id="Path_70-2" d="M0 0h2.93" class="cls-2" transform="translate(6.372 4.651)"/>
            <path id="Path_68-2" d="M2.93 0H0" class="cls-2" transform="rotate(-90 6.977 2.325)"/>
            <path id="Path_71-2" d="M2.93 0H0" class="cls-2" transform="rotate(-90 3.79 -.86)"/>
        </g>
        <g id="Group_14" transform="rotate(-45.97 5903.809 458.986)">
            <path id="Path_69-3" d="M0 0h2.93" class="cls-2" transform="translate(0 4.651)"/>
            <path id="Path_70-3" d="M0 0h2.93" class="cls-2" transform="translate(6.372 4.651)"/>
            <path id="Path_68-3" d="M2.93 0H0" class="cls-2" transform="rotate(-90 6.977 2.325)"/>
            <path id="Path_71-3" d="M2.93 0H0" class="cls-2" transform="rotate(-90 3.79 -.86)"/>
        </g>
        <g id="Group_15" transform="rotate(-45.97 5752.404 570.003)">
            <path id="Path_69-4" d="M0 0h2.93" class="cls-2" transform="translate(0 4.651)"/>
            <path id="Path_70-4" d="M0 0h2.93" class="cls-2" transform="translate(6.372 4.651)"/>
            <path id="Path_68-4" d="M2.93 0H0" class="cls-2" transform="rotate(-90 6.977 2.325)"/>
            <path id="Path_71-4" d="M2.93 0H0" class="cls-2" transform="rotate(-90 3.79 -.86)"/>
        </g>
        <path id="Path_51" d="M1379.124 262.315a4.561 4.561 0 0 1 3.3 0c1.354.749 3.055-.466 3.055-.466" class="cls-3" transform="translate(-748.264 3791.383)"/>
        <path id="Path_52" d="M1379.124 262.315a4.561 4.561 0 0 1 3.3 0c1.354.749 3.055-.466 3.055-.466" class="cls-3" transform="translate(-946.57 3922.245)"/>
        <path id="Path_74" d="M0 .466a4.561 4.561 0 0 1 3.3 0C4.656 1.215 6.357 0 6.357 0" class="cls-3" transform="rotate(-45.97 5403.63 1565.978)"/>
        <path id="Path_57" d="M1379.124 262.315a4.561 4.561 0 0 1 3.3 0c1.354.749 3.055-.466 3.055-.466" class="cls-3" transform="translate(-906.041 3863.383)"/>
        <path id="Path_62" d="M1379.124 262.093a4.561 4.561 0 0 0 3.3 0c1.354-.749 3.055.466 3.055.466" class="cls-3" transform="translate(18.43 3831.949)"/>
        <path id="Path_72" d="M1379.124 262.093a4.561 4.561 0 0 0 3.3 0c1.354-.749 3.055.466 3.055.466" class="cls-3" transform="translate(24.43 3947.745)"/>
        <path id="Path_76" d="M1379.124 262.093a4.561 4.561 0 0 0 3.3 0c1.354-.749 3.055.466 3.055.466" class="cls-3" transform="translate(-73.999 4237.95)"/>
        <path id="Path_75" d="M1379.124 262.093a4.561 4.561 0 0 0 3.3 0c1.354-.749 3.055.466 3.055.466" class="cls-3" transform="translate(76.43 4085.174)"/>
        <path id="Path_78" d="M1379.124 262.093a4.561 4.561 0 0 0 3.3 0c1.354-.749 3.055.466 3.055.466" class="cls-3" transform="translate(169.43 4038.174)"/>
        <path id="Path_67" d="M1379.124 262.093a4.561 4.561 0 0 0 3.3 0c1.354-.749 3.055.466 3.055.466" class="cls-3" transform="translate(-973.57 4067.013)"/>
        <path id="Path_73" d="M0 .244a4.561 4.561 0 0 0 3.3 0C4.656-.505 6.357.71 6.357.71" class="cls-3" transform="rotate(-45.97 5485.292 1687.5)"/>
        <path id="Path_77" d="M0 .244a4.561 4.561 0 0 0 3.3 0C4.656-.505 6.357.71 6.357.71" class="cls-3" transform="rotate(-45.97 5592.002 1587.202)"/>
    </g>
</svg>
