<svg xmlns="http://www.w3.org/2000/svg" width="2438.551" height="894.991" viewBox="0 0 2438.551 894.991">
    <defs>
        <linearGradient id="linear-gradient" x1=".345" x2=".789" y1="1" y2="-.205" gradientUnits="objectBoundingBox">
            <stop offset="0" stop-color="#56cbff"/>
            <stop offset="1" stop-color="#3253fb"/>
        </linearGradient>
        <style>
            .cls-2{fill:#4eb0fe}
        </style>
    </defs>
    <g id="Header" transform="translate(150.631 71.947)">
        <path id="Path_1" fill="url(#linear-gradient)" d="M-211.789 304.907C-5.145 510.924 496.1 725.474 713.684 699.973c168.406-19.737 17.837-181.148 10.192-213.373s31.047-51.028 114.4 33.173C945.864 626.939 1208.631 774.122 1574 651.718S2109.736 108.551 2134.367-36.8s-782.783-121.144-782.783-121.144-694.743-35-705.006-35-433.105 10.2-449.526 12.75-408.842 22.249-408.842 22.249-206.644 256.835.001 462.852z" transform="translate(153 121)"/>
        <ellipse id="Ellipse_1" cx="9.5" cy="26" class="cls-2" rx="9.5" ry="26" transform="rotate(-58 989.914 -510.692)"/>
        <ellipse id="Ellipse_2" cx="4" cy="7" class="cls-2" rx="4" ry="7" transform="rotate(-54 1086.616 -580.772)"/>
    </g>
</svg>
