<svg xmlns="http://www.w3.org/2000/svg" xmlns:xlink="http://www.w3.org/1999/xlink" width="2438.551" height="894.991" viewBox="0 0 2438.551 894.991"><defs><style>.a{fill:url(#a);}</style><linearGradient id="a" x1="-0.012" y1="1.072" x2="1.153" y2="-0.489" gradientUnits="objectBoundingBox"><stop offset="0" stop-color="#6a0b0b"/><stop offset="1" stop-color="#10073a"/></linearGradient></defs><g transform="translate(150.631 71.947)"><path class="a" d="M-211.789,304.907C-5.145,510.924,496.1,725.474,713.684,699.973,882.09,680.236,731.521,518.825,723.876,486.6s31.047-51.028,114.4,33.173C945.864,626.939,1208.631,774.122,1574,651.718S2109.736,108.551,2134.367-36.8s-782.783-121.144-782.783-121.144-694.743-35-705.006-35-433.105,10.2-449.526,12.75-408.842,22.249-408.842,22.249S-418.434,98.89-211.789,304.907Z" transform="translate(153 121)"/><ellipse class="a" cx="9.5" cy="26" rx="9.5" ry="26" transform="matrix(0.53, -0.848, 0.848, 0.53, 898.326, 599.422)"/><ellipse class="a" cx="4" cy="7" rx="4" ry="7" transform="translate(917.774 639.688) rotate(-54)"/></g></svg>