<svg xmlns="http://www.w3.org/2000/svg" xmlns:xlink="http://www.w3.org/1999/xlink" width="1920" height="611" viewBox="0 0 1920 611"><defs><style>.a{fill:url(#a);}.b{fill:#fff;}</style><linearGradient id="a" x1="-0.012" y1="1.072" x2="1.153" y2="-0.489" gradientUnits="objectBoundingBox"><stop offset="0" stop-color="#6a0b0b"/><stop offset="1" stop-color="#10073a"/></linearGradient></defs><g transform="translate(0 -4152)"><rect class="a" width="1920" height="611" transform="translate(0 4152)"/><path class="b" d="M84.18,28.96l-3.84,13.8H59.58L49.86,112H32.46l9.72-69.24H20.46l1.92-13.8Zm41.28,17.52q6.96,0,10.86,4.08t3.9,11.4a26.414,26.414,0,0,1-.24,4.08L133.5,112H116.7l6-42.6q.24-2.4.24-3.12,0-3.24-1.14-4.5a4.223,4.223,0,0,0-3.3-1.26q-7.68,0-15.84,15.72L97.74,112H80.94L93.42,23.08l17.04-1.8-5.4,38.04A29.08,29.08,0,0,1,114,49.96,20.608,20.608,0,0,1,125.46,46.48Zm60,0a52.391,52.391,0,0,1,25.08,6.36l-6,41.76q-.24,2.16-.24,2.88a5.335,5.335,0,0,0,.78,3.06,6.161,6.161,0,0,0,2.7,1.98l-4.8,11.16q-11.76-1.2-13.92-10.56-7.8,10.8-18.96,10.8-9.84,0-15.24-6.78t-5.4-18.3a54.666,54.666,0,0,1,3.72-19.68A37.589,37.589,0,0,1,165,52.96Q173.1,46.48,185.46,46.48Zm-.36,12.36a13.249,13.249,0,0,0-10.32,4.56,27.67,27.67,0,0,0-5.94,11.46,53.486,53.486,0,0,0-1.86,13.98q0,12.36,8.16,12.36a10.971,10.971,0,0,0,6.84-2.4,31.481,31.481,0,0,0,6.36-7.08l4.56-31.44A20.226,20.226,0,0,0,185.1,58.84Zm77.64-12.36q6.84,0,10.74,4.08t3.9,11.4a29.4,29.4,0,0,1-.36,4.32L270.66,112h-16.8l6-42.6q.24-2.4.24-3,0-3.24-1.2-4.56a4.465,4.465,0,0,0-3.48-1.32q-7.32,0-15.48,15.72L234.9,112H218.1l8.88-63.6H241.5l-.48,11.52a34.611,34.611,0,0,1,9.84-9.9A21.6,21.6,0,0,1,262.74,46.48ZM310.86,57.4q9-10.92,21.24-10.92,7.56,0,12.12,4.14a13.974,13.974,0,0,1,4.56,10.86q0,15.36-17.76,22.32L343.38,112h-18.6L312.42,81.16q10.32-3.12,14.7-7.2a12.839,12.839,0,0,0,4.38-9.72A5.6,5.6,0,0,0,330,60.1a5.762,5.762,0,0,0-4.26-1.5q-4.32,0-8.76,3.54T308.7,72.88L303.3,112H286.38l12.48-88.92,17.04-1.92Zm71.4-10.92a35.262,35.262,0,0,1,12.48,2.16,34.711,34.711,0,0,1,10.2,5.88L397.38,64a25.636,25.636,0,0,0-7.32-3.84,24.567,24.567,0,0,0-7.8-1.32,12.746,12.746,0,0,0-7.02,1.62,5,5,0,0,0-2.46,4.38,4.4,4.4,0,0,0,1.14,3.06,10.557,10.557,0,0,0,3.6,2.34q2.46,1.08,7.62,2.76,8.52,2.64,12.72,7.26t4.2,11.94a19.836,19.836,0,0,1-3.24,11.16,21.612,21.612,0,0,1-9.54,7.74,37,37,0,0,1-15.18,2.82,37.768,37.768,0,0,1-14.76-2.82,32.014,32.014,0,0,1-11.04-7.38l8.64-9a26,26,0,0,0,17.4,6.72q5.4,0,8.1-2.16a6.433,6.433,0,0,0,2.7-5.16,6.248,6.248,0,0,0-1.08-3.84,9.5,9.5,0,0,0-3.66-2.64,82.072,82.072,0,0,0-7.98-3q-8.52-2.88-12.48-7.14t-3.96-11.1a17.565,17.565,0,0,1,3-9.84,20.866,20.866,0,0,1,8.94-7.32A33.84,33.84,0,0,1,382.26,46.48ZM498.18,28.96l-3.72,12.96H466.14l-3.24,23.4h24.72l-1.8,12.84H461.1L456.42,112H438.9l11.64-83.04Zm20.04,84.96q-12.48,0-19.32-7.14t-6.84-19.74a53.543,53.543,0,0,1,3.48-18.9,34.912,34.912,0,0,1,11.34-15.48q7.86-6.18,20.1-6.18,12.36,0,19.2,7.08T553.02,73a55.748,55.748,0,0,1-3.36,18.96,34.966,34.966,0,0,1-11.16,15.66Q530.7,113.92,518.22,113.92Zm1.08-12.84q8.88,0,12.6-9.12a53.546,53.546,0,0,0,3.84-19.8q0-6.72-2.46-9.84T525.9,59.2a11.849,11.849,0,0,0-9.9,4.74,28.068,28.068,0,0,0-5.1,11.4,60.989,60.989,0,0,0-1.44,12.9q0,6.6,2.46,9.72T519.3,101.08ZM602.1,46.6a21.509,21.509,0,0,1,6.36.96l-4.8,16.56a17.706,17.706,0,0,0-5.4-.84,11.534,11.534,0,0,0-9.3,4.68q-3.78,4.68-6.9,13.56L577.74,112h-16.8l8.88-63.6h14.52l-.36,12.12a28.068,28.068,0,0,1,8.1-10.38A16.477,16.477,0,0,1,602.1,46.6ZM161.7,172.96,135.66,256H112.98l-2.28-64.8L89.82,256H67.74l-2.52-83.04H82.26l-.36,69.36,22.08-69.36h18.6l2.16,69.36,20.28-69.36Zm33,17.52a52.391,52.391,0,0,1,25.08,6.36l-6,41.76q-.24,2.16-.24,2.88a5.335,5.335,0,0,0,.78,3.06,6.161,6.161,0,0,0,2.7,1.98l-4.8,11.16q-11.76-1.2-13.92-10.56-7.8,10.8-18.96,10.8-9.84,0-15.24-6.78t-5.4-18.3a54.666,54.666,0,0,1,3.72-19.68,37.589,37.589,0,0,1,11.82-16.2Q182.34,190.48,194.7,190.48Zm-.36,12.36a13.249,13.249,0,0,0-10.32,4.56,27.67,27.67,0,0,0-5.94,11.46,53.486,53.486,0,0,0-1.86,13.98q0,12.36,8.16,12.36a10.971,10.971,0,0,0,6.84-2.4,31.481,31.481,0,0,0,6.36-7.08l4.56-31.44A20.225,20.225,0,0,0,194.34,202.84Zm54,33.12q-.24,2.4-.24,3,0,2.88,1.2,4.08a4.889,4.889,0,0,0,3.6,1.2,18.767,18.767,0,0,0,7.68-2.16l4.56,11.16a31.171,31.171,0,0,1-8.1,3.48,31.975,31.975,0,0,1-8.46,1.2q-8.52,0-13.02-4.5t-4.5-12.9a33.232,33.232,0,0,1,.36-4.68l4.44-31.32H226.5l1.68-12.12h10.08l3.96-14.28,14.28-1.68-2.16,15.96h14.64l-3.48,12.12H252.66Zm56.04-45.48a27.489,27.489,0,0,1,19.92,7.8l-8.4,9.96a15.6,15.6,0,0,0-11.4-4.44q-9.24,0-13.26,8.52a44.455,44.455,0,0,0-4.02,19.2q0,6.84,2.76,9.78t7.92,2.94a18.128,18.128,0,0,0,6.3-1.08,37.815,37.815,0,0,0,6.78-3.48l6.36,11.16a37.074,37.074,0,0,1-21.48,7.08q-12.36,0-19.32-7.26t-6.96-19.86a50.026,50.026,0,0,1,3.66-18.42,37.283,37.283,0,0,1,11.46-15.6Q292.5,190.48,304.38,190.48Zm66,0q6.96,0,10.86,4.08t3.9,11.4a26.412,26.412,0,0,1-.24,4.08L378.42,256h-16.8l6-42.6q.24-2.4.24-3.12,0-3.24-1.14-4.5a4.223,4.223,0,0,0-3.3-1.26q-7.68,0-15.84,15.72L342.66,256h-16.8l12.48-88.92,17.04-1.8-5.4,38.04a29.08,29.08,0,0,1,8.94-9.36A20.608,20.608,0,0,1,370.38,190.48Zm49.8,1.92L411.3,256H394.5l8.88-63.6Zm-6.12-12.84a9.082,9.082,0,0,1-6.72-2.52,8.621,8.621,0,0,1-2.52-6.36,10.523,10.523,0,0,1,3.24-7.92,11.138,11.138,0,0,1,8.04-3.12,9.207,9.207,0,0,1,6.72,2.46,8.571,8.571,0,0,1,2.52,6.42,10.523,10.523,0,0,1-3.24,7.92A11.138,11.138,0,0,1,414.06,179.56Zm58.44,10.92q6.84,0,10.74,4.08t3.9,11.4a29.4,29.4,0,0,1-.36,4.32L480.42,256h-16.8l6-42.6q.24-2.4.24-3,0-3.24-1.2-4.56a4.464,4.464,0,0,0-3.48-1.32q-7.32,0-15.48,15.72L444.66,256h-16.8l8.88-63.6h14.52l-.48,11.52a34.61,34.61,0,0,1,9.84-9.9A21.6,21.6,0,0,1,472.5,190.48Zm60.24,0a52.623,52.623,0,0,1,25.2,6.36l-8.04,55.08q-2.4,16.2-10.26,23.4t-22.26,7.2a43.883,43.883,0,0,1-12.06-1.8,44.8,44.8,0,0,1-11.34-4.92l5.76-11.52q9.12,5.04,17.28,5.04a17.2,17.2,0,0,0,10.68-3.18q4.2-3.18,5.52-12.18l.96-6.6a28.327,28.327,0,0,1-7.8,6.3,19.343,19.343,0,0,1-9.36,2.34q-9.84,0-15.3-6.66t-5.46-17.82a51.292,51.292,0,0,1,3.78-19.26,36.1,36.1,0,0,1,11.94-15.6Q520.14,190.48,532.74,190.48Zm-.36,12.36a14.113,14.113,0,0,0-10.56,4.32,25.631,25.631,0,0,0-6.12,10.8,46.227,46.227,0,0,0-1.92,13.2q0,12,8.4,12,6.72,0,13.56-9.48l4.56-29.4A21.746,21.746,0,0,0,532.38,202.84Z" transform="translate(645.54 4305.84)"/></g></svg>